<svg width="190.5mm" height="158.8mm" version="1.1" viewBox="0 0 190.5 158.75" xmlns="http://www.w3.org/2000/svg">
 <rect y="-7.105e-15" width="190.5" height="158.8" fill="#fff"/>
 <rect x="30.16" y="5.159" width="142" height="135.8" fill="#eee"/>
 <g fill="none">
 <g stroke="#000" stroke-width=".5292">
 <path d="m30.16 133.8h1.984m140 0h-1.984"/>
 <path d="m30.16 12.3h1.984m140 0h-1.984m-140 7.144h1.984m140 0h-1.984m-140 14.31h1.984m140 0h-1.984m-140 7.144h1.984m140 0h-1.984m-140 7.144h1.984m140 0h-1.984m-140 14.29h1.984m140 0h-1.984m-140 7.144h1.984m140 0h-1.984m-140 7.17h1.984m140 0h-1.984m-140 14.29h1.984m140 0h-1.984m-140 7.144h1.984m140 0h-1.984m-140 7.144h1.984m140 0h-1.984m-140 14.31h1.984m140 0h-1.984m-140 7.144h1.984m140 0h-1.984m-140-100.1h3.969m138.1 0h-3.969m-138.1 28.6h3.969m138.1 0h-3.969m-138.1 28.6h3.969m138.1 0h-3.969m-138.1 28.57h3.969m138.1 0h-3.969"/>
 <path d="m165.1 141v-1.984m0-133.8v1.984m-7.117 133.8v-1.984m0-133.8v1.984m-7.091 133.8v-1.984m0-133.8v1.984m-7.117 133.8v-1.984m0-133.8v1.984m-14.18 133.8v-1.984m0-133.8v1.984m-7.117 133.8v-1.984m0-133.8v1.984m-7.091 133.8v-1.984m0-133.8v1.984m-7.117 133.8v-1.984m0-133.8v1.984m-14.18 133.8v-1.984m0-133.8v1.984m-7.117 133.8v-1.984m0-133.8v1.984m-7.091 133.8v-1.984m0-133.8v1.984m-7.117 133.8v-1.984m0-133.8v1.984m-14.18 133.8v-1.984m0-133.8v1.984m-7.117 133.8v-1.984m0-133.8v1.984m-7.091 133.8v-1.984m0-133.8v1.984m-7.117 133.8v-1.984m0-133.8v1.984m99.43 133.8v-3.969m0-131.8v3.969m-35.51 131.8v-3.969m0-131.8v3.969m-35.51 131.8v-3.969m0-131.8v3.969"/>
 <rect x="30.16" y="5.159" width="142" height="135.8"/>
 </g>
 <g stroke-width=".7937">
 <path id="3500K" d="m52.23 140.5c8.913-1.53 15.75-8.255 24.38-10.66 11.44-3.538 23.49-.9154 35 .8549 20.04 3.525 40.27 5.836 60.59 6.988" stroke="#900"/>
 <path id="4000K" d="m48.82 140.3c6.231-2.211 9.652-8.325 13.82-13.04 4.486-5.613 10.39-11.27 18.03-11.42 8.844-.1393 16.99 3.916 25.18 6.705 17.17 6.527 35.21 10.53 53.43 12.62 4.294.5455 8.604.9539 12.91 1.349" stroke="#f00"/>
 <path id="4500K" d="m45.35 140.4c4.49-1.749 6.268-6.763 8.251-10.77 4.446-9.832 7.245-20.62 13.87-29.32 2.576-3.361 6.95-5.575 11.19-4.266 7.123 2.201 12.71 7.47 18.68 11.71 11.56 8.824 24.45 16 38.39 20.26 11.86 3.683 24.14 5.83 36.46 7.274" stroke="#f60"/>
 <path id="5000K" d="m43.35 140.3c3.74-2.386 4.672-7.203 5.991-11.16 5.228-18.5 7.171-37.89 13.95-55.96 1.627-3.472 3.416-8.177 7.68-8.844 4.549.0531 7.495 4.318 10.22 7.439 9.297 12.18 17.41 25.44 28.81 35.87 12.3 11.68 28.11 18.98 44.48 22.91 5.846 1.449 11.77 2.543 17.72 3.462" stroke="#fc0"/>
 <path id="5500K" d="m41.91 140.1c3.353-3.513 3.729-8.791 4.819-13.34 3.812-21.48 5.581-43.27 8.562-64.87 1.935-13.29 3.305-26.85 7.864-39.56.9648-2.291 3.1-6.134 6.038-4.267 5.04 4.377 6.949 11.16 9.758 17.02 9.797 23.87 18.48 49.07 35.85 68.71 11.49 13.1 27.42 21.56 44.13 25.91 4.373 1.198 8.807 2.152 13.26 3.006" stroke="#0c0"/>
 <rect x="30.16" y="5.159" width="142" height="135.8" stroke="#000"/>
 </g>
 </g>
 <g font-family="Arial" font-size="5px">
 <g text-anchor="end">
 <text x="27.596043" y="142.34584">0</text>
 <text x="27.596043" y="113.74438">2E+11</text>
 <text x="27.596043" y="85.169373">4E+11</text>
 <text x="27.596043" y="56.567905">6E+11</text>
 <text x="27.596043" y="27.966461">8E+11</text>
 </g>
 <g text-anchor="middle"><text x="30.162498" y="147.90208">0</text><text x="65.669586" y="147.90208">500
 </text><text x="101.17667" y="147.90208">1000</text><text x="136.68376" y="147.90208">1500</text><text x="172.19083" y="147.90208">2000</text><text transform="rotate(-90)" x="-73.077911" y="8.0697918"><tspan>Spectral energy density / kJ/m</tspan><tspan dy="-1.3229166">3</tspan><tspan dy="1.3229166">nm</tspan></text><text x="101.17667" y="156.23647">Wavelength / nm</text><text x="88.97937" y="126.76189">3500K</text><text x="81.809174" y="114.51166">4000K</text><text x="76.067711" y="94.376877">4500K</text><text x="71.755005" y="62.997288">5000K</text><text x="68.897499" y="16.509995">5500K</text></g></g></svg>